<mxfile host="app.diagrams.net" modified="2023-12-11T12:05:18.694Z" agent="Mozilla/5.0 (Windows NT 10.0; Win64; x64) AppleWebKit/537.36 (KHTML, like Gecko) Chrome/118.0.5993.732 YaBrowser/23.11.1.732 Yowser/2.5 Safari/537.36" etag="fP4thOomCaWA5nZYC0d7" version="22.1.7" type="github">
  <diagram name="Страница — 1" id="8aTEOe-QuroDj3xyR8eQ">
    <mxGraphModel dx="1205" dy="681" grid="1" gridSize="10" guides="1" tooltips="1" connect="1" arrows="1" fold="1" page="1" pageScale="1" pageWidth="1169" pageHeight="827" math="0" shadow="0">
      <root>
        <mxCell id="0" />
        <mxCell id="1" parent="0" />
        <mxCell id="AYj9zMjsYxJNHYWbNuNB-19" value="White label dApp" style="rounded=0;whiteSpace=wrap;html=1;gradientColor=none;fillColor=none;dashed=1;dashPattern=12 12;verticalAlign=top;" vertex="1" parent="1">
          <mxGeometry x="40" y="280" width="720" height="440" as="geometry" />
        </mxCell>
        <mxCell id="AYj9zMjsYxJNHYWbNuNB-7" value="&lt;b&gt;Распространение/ Distribution&lt;/b&gt;" style="swimlane;fontStyle=0;childLayout=stackLayout;horizontal=1;startSize=40;horizontalStack=0;resizeParent=1;resizeParentMax=0;resizeLast=0;collapsible=1;marginBottom=0;whiteSpace=wrap;html=1;" vertex="1" parent="1">
          <mxGeometry x="440" y="320" width="280" height="170" as="geometry" />
        </mxCell>
        <mxCell id="AYj9zMjsYxJNHYWbNuNB-8" value="Выпуск STO / STO generation" style="text;strokeColor=none;fillColor=none;align=left;verticalAlign=middle;spacingLeft=4;spacingRight=4;overflow=hidden;points=[[0,0.5],[1,0.5]];portConstraint=eastwest;rotatable=0;whiteSpace=wrap;html=1;" vertex="1" parent="AYj9zMjsYxJNHYWbNuNB-7">
          <mxGeometry y="40" width="280" height="30" as="geometry" />
        </mxCell>
        <mxCell id="AYj9zMjsYxJNHYWbNuNB-27" value="Первичная или вторичная продажа токенов /&amp;nbsp;Primary or Secondary Marketplace" style="text;strokeColor=none;fillColor=none;align=left;verticalAlign=middle;spacingLeft=4;spacingRight=4;overflow=hidden;points=[[0,0.5],[1,0.5]];portConstraint=eastwest;rotatable=0;whiteSpace=wrap;html=1;fontColor=#CC0000;" vertex="1" parent="AYj9zMjsYxJNHYWbNuNB-7">
          <mxGeometry y="70" width="280" height="40" as="geometry" />
        </mxCell>
        <mxCell id="AYj9zMjsYxJNHYWbNuNB-35" value="Выполнение требований KYC/ AML при покупке-продаже токенов / KYC/ AML compliance of buy-sell opearations" style="text;strokeColor=none;fillColor=none;align=left;verticalAlign=middle;spacingLeft=4;spacingRight=4;overflow=hidden;points=[[0,0.5],[1,0.5]];portConstraint=eastwest;rotatable=0;whiteSpace=wrap;html=1;fontColor=#CC0000;" vertex="1" parent="AYj9zMjsYxJNHYWbNuNB-7">
          <mxGeometry y="110" width="280" height="60" as="geometry" />
        </mxCell>
        <mxCell id="AYj9zMjsYxJNHYWbNuNB-13" value="&lt;b&gt;Токенизация / Tokenization&lt;/b&gt;" style="swimlane;fontStyle=0;childLayout=stackLayout;horizontal=1;startSize=40;horizontalStack=0;resizeParent=1;resizeParentMax=0;resizeLast=0;collapsible=1;marginBottom=0;whiteSpace=wrap;html=1;" vertex="1" parent="1">
          <mxGeometry x="80" y="320" width="280" height="360" as="geometry" />
        </mxCell>
        <mxCell id="AYj9zMjsYxJNHYWbNuNB-14" value="Выбор токена / Token selection" style="text;strokeColor=none;fillColor=none;align=left;verticalAlign=middle;spacingLeft=4;spacingRight=4;overflow=hidden;points=[[0,0.5],[1,0.5]];portConstraint=eastwest;rotatable=0;whiteSpace=wrap;html=1;" vertex="1" parent="AYj9zMjsYxJNHYWbNuNB-13">
          <mxGeometry y="40" width="280" height="30" as="geometry" />
        </mxCell>
        <mxCell id="AYj9zMjsYxJNHYWbNuNB-15" value="Выбор блокчейна / Blockchain selection" style="text;strokeColor=none;fillColor=none;align=left;verticalAlign=middle;spacingLeft=4;spacingRight=4;overflow=hidden;points=[[0,0.5],[1,0.5]];portConstraint=eastwest;rotatable=0;whiteSpace=wrap;html=1;" vertex="1" parent="AYj9zMjsYxJNHYWbNuNB-13">
          <mxGeometry y="70" width="280" height="40" as="geometry" />
        </mxCell>
        <mxCell id="AYj9zMjsYxJNHYWbNuNB-16" value="Выбор провайдера /&amp;nbsp; Provider KYC/AML selection" style="text;strokeColor=none;fillColor=none;align=left;verticalAlign=middle;spacingLeft=4;spacingRight=4;overflow=hidden;points=[[0,0.5],[1,0.5]];portConstraint=eastwest;rotatable=0;whiteSpace=wrap;html=1;" vertex="1" parent="AYj9zMjsYxJNHYWbNuNB-13">
          <mxGeometry y="110" width="280" height="40" as="geometry" />
        </mxCell>
        <mxCell id="AYj9zMjsYxJNHYWbNuNB-34" value="Выбор протокола /&amp;nbsp; Protocol selection" style="text;strokeColor=none;fillColor=none;align=left;verticalAlign=middle;spacingLeft=4;spacingRight=4;overflow=hidden;points=[[0,0.5],[1,0.5]];portConstraint=eastwest;rotatable=0;whiteSpace=wrap;html=1;" vertex="1" parent="AYj9zMjsYxJNHYWbNuNB-13">
          <mxGeometry y="150" width="280" height="40" as="geometry" />
        </mxCell>
        <mxCell id="AYj9zMjsYxJNHYWbNuNB-33" value="Смарт-контракт / Smart contract" style="text;strokeColor=none;fillColor=none;align=left;verticalAlign=middle;spacingLeft=4;spacingRight=4;overflow=hidden;points=[[0,0.5],[1,0.5]];portConstraint=eastwest;rotatable=0;whiteSpace=wrap;html=1;fontColor=#CC0000;" vertex="1" parent="AYj9zMjsYxJNHYWbNuNB-13">
          <mxGeometry y="190" width="280" height="40" as="geometry" />
        </mxCell>
        <mxCell id="AYj9zMjsYxJNHYWbNuNB-17" value="Выбор аудитора /&amp;nbsp; Oracle selection" style="text;strokeColor=none;fillColor=none;align=left;verticalAlign=middle;spacingLeft=4;spacingRight=4;overflow=hidden;points=[[0,0.5],[1,0.5]];portConstraint=eastwest;rotatable=0;whiteSpace=wrap;html=1;" vertex="1" parent="AYj9zMjsYxJNHYWbNuNB-13">
          <mxGeometry y="230" width="280" height="40" as="geometry" />
        </mxCell>
        <mxCell id="AYj9zMjsYxJNHYWbNuNB-18" value="Токен обеспечен средствами / Backed token" style="text;strokeColor=none;fillColor=none;align=left;verticalAlign=middle;spacingLeft=4;spacingRight=4;overflow=hidden;points=[[0,0.5],[1,0.5]];portConstraint=eastwest;rotatable=0;whiteSpace=wrap;html=1;fontColor=#CC0000;" vertex="1" parent="AYj9zMjsYxJNHYWbNuNB-13">
          <mxGeometry y="270" width="280" height="40" as="geometry" />
        </mxCell>
        <mxCell id="AYj9zMjsYxJNHYWbNuNB-20" value="&lt;font style=&quot;font-size: 12px;&quot;&gt;&amp;nbsp;&lt;span style=&quot;font-family: arial, sans-serif; background-color: rgb(255, 255, 255);&quot;&gt;Proof of Reserve&lt;/span&gt;&lt;/font&gt;" style="text;strokeColor=none;fillColor=none;align=left;verticalAlign=middle;spacingLeft=4;spacingRight=4;overflow=hidden;points=[[0,0.5],[1,0.5]];portConstraint=eastwest;rotatable=0;whiteSpace=wrap;html=1;fontColor=#CC0000;" vertex="1" parent="AYj9zMjsYxJNHYWbNuNB-13">
          <mxGeometry y="310" width="280" height="50" as="geometry" />
        </mxCell>
        <mxCell id="AYj9zMjsYxJNHYWbNuNB-22" value="&lt;b&gt;Оцифровка актива/ Real estate digitizing&lt;/b&gt;" style="swimlane;fontStyle=0;childLayout=stackLayout;horizontal=1;startSize=40;horizontalStack=0;resizeParent=1;resizeParentMax=0;resizeLast=0;collapsible=1;marginBottom=0;whiteSpace=wrap;html=1;" vertex="1" parent="1">
          <mxGeometry x="440" y="40" width="280" height="180" as="geometry" />
        </mxCell>
        <mxCell id="AYj9zMjsYxJNHYWbNuNB-23" value="&lt;font color=&quot;#cc0000&quot;&gt;Структура фонда недвижимости /&amp;nbsp;Real estate fund Structure&lt;/font&gt;" style="text;strokeColor=none;fillColor=none;align=left;verticalAlign=middle;spacingLeft=4;spacingRight=4;overflow=hidden;points=[[0,0.5],[1,0.5]];portConstraint=eastwest;rotatable=0;whiteSpace=wrap;html=1;" vertex="1" parent="AYj9zMjsYxJNHYWbNuNB-22">
          <mxGeometry y="40" width="280" height="30" as="geometry" />
        </mxCell>
        <mxCell id="AYj9zMjsYxJNHYWbNuNB-24" value="&lt;font color=&quot;#cc0000&quot;&gt;Финансовая структура /&amp;nbsp;Finance Structure&lt;/font&gt;" style="text;strokeColor=none;fillColor=none;align=left;verticalAlign=middle;spacingLeft=4;spacingRight=4;overflow=hidden;points=[[0,0.5],[1,0.5]];portConstraint=eastwest;rotatable=0;whiteSpace=wrap;html=1;" vertex="1" parent="AYj9zMjsYxJNHYWbNuNB-22">
          <mxGeometry y="70" width="280" height="50" as="geometry" />
        </mxCell>
        <mxCell id="AYj9zMjsYxJNHYWbNuNB-25" value="Тип инвестирования дробное или полное / Fractional or not investment&amp;nbsp;" style="text;strokeColor=none;fillColor=none;align=left;verticalAlign=middle;spacingLeft=4;spacingRight=4;overflow=hidden;points=[[0,0.5],[1,0.5]];portConstraint=eastwest;rotatable=0;whiteSpace=wrap;html=1;" vertex="1" parent="AYj9zMjsYxJNHYWbNuNB-22">
          <mxGeometry y="120" width="280" height="60" as="geometry" />
        </mxCell>
        <mxCell id="AYj9zMjsYxJNHYWbNuNB-28" value="&lt;b&gt;Поддержка деятельности / Support&lt;/b&gt;" style="swimlane;fontStyle=0;childLayout=stackLayout;horizontal=1;startSize=40;horizontalStack=0;resizeParent=1;resizeParentMax=0;resizeLast=0;collapsible=1;marginBottom=0;whiteSpace=wrap;html=1;" vertex="1" parent="1">
          <mxGeometry x="800" y="40" width="280" height="80" as="geometry" />
        </mxCell>
        <mxCell id="AYj9zMjsYxJNHYWbNuNB-36" value="Оплата налогов / Taxes pay" style="text;strokeColor=none;fillColor=none;align=left;verticalAlign=middle;spacingLeft=4;spacingRight=4;overflow=hidden;points=[[0,0.5],[1,0.5]];portConstraint=eastwest;rotatable=0;whiteSpace=wrap;html=1;fontColor=#CC0000;" vertex="1" parent="AYj9zMjsYxJNHYWbNuNB-28">
          <mxGeometry y="40" width="280" height="40" as="geometry" />
        </mxCell>
        <mxCell id="AYj9zMjsYxJNHYWbNuNB-37" value="&lt;b&gt;Юрисдикция / Jurisdiction&lt;/b&gt;" style="swimlane;fontStyle=0;childLayout=stackLayout;horizontal=1;startSize=40;horizontalStack=0;resizeParent=1;resizeParentMax=0;resizeLast=0;collapsible=1;marginBottom=0;whiteSpace=wrap;html=1;" vertex="1" parent="1">
          <mxGeometry x="80" y="40" width="280" height="140" as="geometry" />
        </mxCell>
        <mxCell id="AYj9zMjsYxJNHYWbNuNB-38" value="Требования / Requirements KYC/AML" style="text;strokeColor=none;fillColor=none;align=left;verticalAlign=middle;spacingLeft=4;spacingRight=4;overflow=hidden;points=[[0,0.5],[1,0.5]];portConstraint=eastwest;rotatable=0;whiteSpace=wrap;html=1;" vertex="1" parent="AYj9zMjsYxJNHYWbNuNB-37">
          <mxGeometry y="40" width="280" height="40" as="geometry" />
        </mxCell>
        <mxCell id="AYj9zMjsYxJNHYWbNuNB-39" value="Возможность перевода актива в цифровой вид / Tokenization possibility" style="text;strokeColor=none;fillColor=none;align=left;verticalAlign=middle;spacingLeft=4;spacingRight=4;overflow=hidden;points=[[0,0.5],[1,0.5]];portConstraint=eastwest;rotatable=0;whiteSpace=wrap;html=1;" vertex="1" parent="AYj9zMjsYxJNHYWbNuNB-37">
          <mxGeometry y="80" width="280" height="60" as="geometry" />
        </mxCell>
        <mxCell id="AYj9zMjsYxJNHYWbNuNB-41" style="edgeStyle=orthogonalEdgeStyle;rounded=0;orthogonalLoop=1;jettySize=auto;html=1;exitX=1;exitY=0.14;exitDx=0;exitDy=0;entryX=0;entryY=0.113;entryDx=0;entryDy=0;entryPerimeter=0;exitPerimeter=0;" edge="1" parent="1" source="AYj9zMjsYxJNHYWbNuNB-37" target="AYj9zMjsYxJNHYWbNuNB-22">
          <mxGeometry relative="1" as="geometry" />
        </mxCell>
        <mxCell id="AYj9zMjsYxJNHYWbNuNB-42" style="edgeStyle=orthogonalEdgeStyle;rounded=0;orthogonalLoop=1;jettySize=auto;html=1;entryX=0.5;entryY=0;entryDx=0;entryDy=0;exitX=0.997;exitY=0.113;exitDx=0;exitDy=0;exitPerimeter=0;" edge="1" parent="1" source="AYj9zMjsYxJNHYWbNuNB-22" target="AYj9zMjsYxJNHYWbNuNB-13">
          <mxGeometry relative="1" as="geometry">
            <mxPoint x="730" y="80" as="sourcePoint" />
            <Array as="points">
              <mxPoint x="740" y="80" />
              <mxPoint x="740" y="260" />
              <mxPoint x="220" y="260" />
            </Array>
          </mxGeometry>
        </mxCell>
        <mxCell id="AYj9zMjsYxJNHYWbNuNB-43" style="edgeStyle=orthogonalEdgeStyle;rounded=0;orthogonalLoop=1;jettySize=auto;html=1;exitX=0.996;exitY=0.062;exitDx=0;exitDy=0;entryX=0;entryY=0.131;entryDx=0;entryDy=0;entryPerimeter=0;exitPerimeter=0;" edge="1" parent="1" source="AYj9zMjsYxJNHYWbNuNB-13" target="AYj9zMjsYxJNHYWbNuNB-7">
          <mxGeometry relative="1" as="geometry" />
        </mxCell>
        <mxCell id="AYj9zMjsYxJNHYWbNuNB-44" style="edgeStyle=orthogonalEdgeStyle;rounded=0;orthogonalLoop=1;jettySize=auto;html=1;entryX=0;entryY=0.25;entryDx=0;entryDy=0;" edge="1" parent="1" target="AYj9zMjsYxJNHYWbNuNB-28">
          <mxGeometry relative="1" as="geometry">
            <mxPoint x="720" y="340" as="sourcePoint" />
            <Array as="points">
              <mxPoint x="780" y="340" />
              <mxPoint x="780" y="60" />
            </Array>
          </mxGeometry>
        </mxCell>
      </root>
    </mxGraphModel>
  </diagram>
</mxfile>
